<?xml version="1.0" encoding="iso-8859-1"?>
<!-- Generator: Adobe Illustrator 19.0.0, SVG Export Plug-In . SVG Version: 6.00 Build 0)  -->
<svg xmlns="http://www.w3.org/2000/svg" xmlns:xlink="http://www.w3.org/1999/xlink" version="1.1" id="Capa_1" x="0px" y="0px" viewBox="0 0 416 416" style="enable-background:new 0 0 416 416;" xml:space="preserve" width="512px" height="512px">
<g>
	<g>
		<path d="M282.92,276.32c-3.148-7.728-9.212-13.907-16.88-17.2c-3.908-1.66-8.114-2.504-12.36-2.48    c-6.352,0.239-12.548,2.039-18.04,5.24l4-22.28H272c2.857,0.259,5.709-0.554,8-2.28c1.714-1.429,2.674-3.569,2.6-5.8    c0-5.467-3.573-8.2-10.72-8.2h-36.52c-3.104-0.289-6.192,0.693-8.56,2.72c-2.025,2.443-3.266,5.44-3.56,8.6l-5.8,32.96    c-0.52,2.88-0.76,4.44-0.76,4.68c0.031,2.14,0.978,4.164,2.6,5.56c1.603,1.568,3.758,2.444,6,2.44c2.979-0.355,5.775-1.627,8-3.64    c2.337-1.825,4.781-3.508,7.32-5.04c2.672-1.148,5.579-1.641,8.48-1.44c3.076-0.032,6.103,0.77,8.76,2.32    c2.685,1.674,4.825,4.092,6.16,6.96c1.66,3.523,2.469,7.387,2.36,11.28c0.008,3.793-0.797,7.544-2.36,11    c-1.318,3.062-3.465,5.694-6.2,7.6c-2.734,1.856-5.976,2.82-9.28,2.76c-3.77,0.038-7.45-1.156-10.48-3.4    c-3.28-2.474-5.847-5.773-7.44-9.56c-1.1-3.866-4.582-6.571-8.6-6.68c-2.126-0.046-4.168,0.829-5.6,2.4    c-1.331,1.389-2.076,3.237-2.08,5.16c0.2,3.638,1.3,7.171,3.2,10.28c2.639,4.375,6.412,7.955,10.92,10.36    c6.143,3.265,13.049,4.826,20,4.52c6.832,0.175,13.585-1.483,19.56-4.8c5.444-3.032,9.922-7.538,12.92-13    c3.012-5.574,4.554-11.824,4.48-18.16C285.43,284.785,284.587,280.408,282.92,276.32z" fill="#e5c100"/>
	</g>
</g>
<g>
	<g>
		<path d="M198.64,309.4c-2.411-1.628-5.298-2.402-8.2-2.2h-36c1.028-1.57,2.164-3.067,3.4-4.48c4.33-4.776,9.068-9.166,14.16-13.12    c7-5.6,12-9.6,14.84-12.44c3.396-3.215,6.306-6.907,8.64-10.96c2.836-4.69,4.305-10.08,4.24-15.56    c-0.033-7.209-2.79-14.14-7.72-19.4c-2.408-2.555-5.287-4.62-8.48-6.08c-5.695-2.326-11.811-3.443-17.96-3.28    c-5.212-0.105-10.396,0.777-15.28,2.6c-4.01,1.495-7.672,3.796-10.76,6.76c-2.739,2.666-4.904,5.865-6.36,9.4    c-1.354,3.12-2.075,6.479-2.12,9.88c-0.128,2.293,0.697,4.536,2.28,6.2c1.511,1.516,3.581,2.341,5.72,2.28    c2.266,0.154,4.472-0.764,5.96-2.48c1.614-2.146,2.846-4.555,3.64-7.12c0.594-1.949,1.371-3.837,2.32-5.64    c2.912-5.046,8.336-8.11,14.16-8c2.786-0.047,5.539,0.614,8,1.92c2.362,1.246,4.34,3.113,5.72,5.4c1.421,2.422,2.141,5.192,2.08,8    c-0.052,2.869-0.72,5.693-1.96,8.28c-1.479,3.052-3.437,5.847-5.8,8.28c-2.841,2.992-5.992,5.674-9.4,8    c-3.69,2.751-7.203,5.73-10.52,8.92c-4.907,4.533-10.413,9.96-16.52,16.28c-1.662,1.924-3.012,4.097-4,6.44    c-1.052,2.039-1.678,4.271-1.84,6.56c-0.019,2.544,1.025,4.98,2.88,6.72c2.177,1.983,5.06,3.006,8,2.84h50.68    c2.49,0.199,4.951-0.64,6.8-2.32c1.478-1.533,2.284-3.591,2.24-5.72C201.56,313.029,200.501,310.806,198.64,309.4z" fill="#e5c100"/>
	</g>
</g>
<g>
	<g>
		<path d="M339.12,40.88h-3.68V32c0-17.673-14.327-32-32-32c-17.673,0-32,14.327-32,32v8.76H144.52V32c0-17.673-14.327-32-32-32    s-32,14.327-32,32v8.76h-3.68c-31.121,0.11-56.298,25.358-56.32,56.48v262.24c0,31.153,25.207,56.432,56.36,56.52h262.24    c31.09-0.088,56.272-25.27,56.36-56.36V97.24C395.392,66.15,370.21,40.968,339.12,40.88z M282.96,32    c0-11.333,9.187-20.52,20.52-20.52C314.813,11.48,324,20.667,324,32v29.04c-0.5,11.322-10.084,20.094-21.406,19.594    C291.973,80.165,283.469,71.661,283,61.04l-0.04-14.44V32z M92,46.6V32c0.5-11.322,10.084-20.094,21.406-19.594    C124.027,12.875,132.531,21.379,133,32v29.04c-0.5,11.322-10.084,20.094-21.406,19.594C100.973,80.165,92.469,71.661,92,61.04    V46.6z M384,359.48c-0.066,24.766-20.114,44.832-44.88,44.92H76.88c-24.766-0.088-44.814-20.154-44.88-44.92v-200h352V359.48z     M384,148H32V97.24c0.088-24.75,20.13-44.792,44.88-44.88l-0.04-0.04h3.68v8.76c0,17.673,14.327,32,32,32    c17.673,0,32-14.327,32-32v-8.72h126.96v8.76c0,17.673,14.327,32,32,32c17.673,0,32-14.327,32-32v-8.76h3.68    c24.734,0.11,44.752,20.145,44.84,44.88V148z" fill="#e5c100"/>
	</g>
</g>
<g>
</g>
<g>
</g>
<g>
</g>
<g>
</g>
<g>
</g>
<g>
</g>
<g>
</g>
<g>
</g>
<g>
</g>
<g>
</g>
<g>
</g>
<g>
</g>
<g>
</g>
<g>
</g>
<g>
</g>
</svg>
