<?xml version="1.0" encoding="iso-8859-1"?>
<!-- Generator: Adobe Illustrator 16.0.0, SVG Export Plug-In . SVG Version: 6.00 Build 0)  -->
<!DOCTYPE svg PUBLIC "-//W3C//DTD SVG 1.1//EN" "http://www.w3.org/Graphics/SVG/1.1/DTD/svg11.dtd">
<svg xmlns="http://www.w3.org/2000/svg" xmlns:xlink="http://www.w3.org/1999/xlink" version="1.1" id="Capa_1" x="0px" y="0px" width="512px" height="512px" viewBox="0 0 52.355 52.355" style="enable-background:new 0 0 52.355 52.355;" xml:space="preserve">
<g>
	<g>
		<path d="M43.856,52.002c-2.271,0-4.404-0.886-6.011-2.49L26.178,37.845L14.51,49.512c-1.604,1.604-3.739,2.49-6.01,2.49    s-4.404-0.886-6.01-2.49C0.885,47.908,0,45.773,0,43.502c0-2.271,0.885-4.405,2.491-6.011l11.666-11.668l-10.96-10.96    c-1.605-1.604-2.49-3.739-2.49-6.01s0.885-4.405,2.49-6.01s3.739-2.49,6.011-2.49c2.271,0,4.405,0.885,6.01,2.49l10.96,10.961    l10.96-10.96c1.604-1.605,3.738-2.49,6.01-2.49s4.406,0.885,6.01,2.49c1.605,1.604,2.49,3.739,2.49,6.01    c0,2.271-0.885,4.405-2.49,6.01L38.199,25.824l11.666,11.668c1.605,1.604,2.49,3.738,2.49,6.011c0,2.271-0.885,4.405-2.49,6.01    C48.262,51.117,46.127,52.002,43.856,52.002z M26.178,33.017c0.511,0,1.023,0.195,1.414,0.586l13.082,13.081    c0.853,0.851,1.98,1.318,3.183,1.318s2.331-0.468,3.182-1.318c0.853-0.851,1.318-1.979,1.318-3.182s-0.468-2.332-1.318-3.181    l-13.08-13.084c-0.78-0.781-0.78-2.046,0-2.828l12.373-12.375c0.853-0.851,1.318-1.979,1.318-3.182    c0-1.203-0.468-2.331-1.318-3.182c-0.85-0.851-1.979-1.318-3.182-1.318s-2.332,0.468-3.181,1.318L27.592,18.046    c-0.781,0.781-2.045,0.781-2.828,0L12.388,5.672c-0.85-0.851-1.979-1.318-3.181-1.318c-1.202,0-2.332,0.468-3.182,1.318    C5.174,6.523,4.706,7.651,4.706,8.854c0,1.203,0.469,2.331,1.318,3.182l12.374,12.375c0.781,0.781,0.781,2.047,0,2.829    L5.318,40.322C4.468,41.171,4,42.3,4,43.503c0,1.201,0.469,2.331,1.318,3.182c0.851,0.852,1.98,1.318,3.182,1.318    c1.202,0,2.332-0.469,3.182-1.318l13.083-13.081C25.155,33.212,25.667,33.017,26.178,33.017z" fill="#FFFFFF"/>
	</g>
</g>
<g>
</g>
<g>
</g>
<g>
</g>
<g>
</g>
<g>
</g>
<g>
</g>
<g>
</g>
<g>
</g>
<g>
</g>
<g>
</g>
<g>
</g>
<g>
</g>
<g>
</g>
<g>
</g>
<g>
</g>
</svg>
